<?xml version="1.0" encoding="iso-8859-1"?>
<!-- Uploaded to: SVG Repo, www.svgrepo.com, Generator: SVG Repo Mixer Tools -->
<!DOCTYPE svg PUBLIC "-//W3C//DTD SVG 1.1//EN" "http://www.w3.org/Graphics/SVG/1.1/DTD/svg11.dtd">
<svg fill="#d3d3d3" version="1.1" id="Capa_1" xmlns="http://www.w3.org/2000/svg"
  xmlns:xlink="http://www.w3.org/1999/xlink"
  width="800px" height="800px" viewBox="0 0 310.278 310.278"
  xml:space="preserve">
<g>
	<g>
		<path d="M259.537,48.827C259.537,21.982,212.794,0,155.139,0C97.484,0,50.741,22.096,50.741,48.935
			c0,1.516,0.195,4.838,0.485,4.838h1.076c-0.396,1.804,0.237,3.602,0.237,5.405v-4.751c-0.061-0.221-0.166-0.432-0.222-0.649h0.222
			v0.649c6.404,23.981,49.805,42.551,103.048,42.551c52.745,0,95.144-18.225,102.152-41.876v-1.324h0.442
			c-0.11,0.448-0.311,0.881-0.442,1.324v4.076c0-1.804,0.854-3.602,0.459-5.4h0.854C259.342,53.778,259.537,50.351,259.537,48.827z
			 M248.906,52.877c-0.738,3.812-2.764,7.462-5.838,10.897c-13.505,15.061-47.729,25.779-87.93,25.779
			c-35.861,0-67.03-8.517-82.933-21.049c-5.988-4.72-9.748-10.012-10.839-15.628c-0.208-1.097-0.393-2.199-0.393-3.322
			c0-4.411,1.743-8.638,4.849-12.609c12.443-15.897,47.693-27.382,89.316-27.382c44.028,0,80.89,12.852,91.194,30.196
			c1.866,3.143,2.963,6.41,2.963,9.8C249.307,50.678,249.117,51.78,248.906,52.877z"/>
		<path d="M156.787,23.053c-34.987,0-81.746,3.277-93.108,26.507c-0.491,1.008,0.179,2.221,0.427,3.322
			c0.841,3.694,3.077,7.251,6.479,10.584c13.84,13.561,46.965,23.393,84.56,23.393c37.594,0,70.717-9.827,84.56-23.393
			c3.401-3.333,5.632-6.89,6.48-10.584c0.243-1.097,0.865-2.288,0.422-3.322C236.587,25.877,193.424,23.053,156.787,23.053z"/>
		<path d="M256.742,268.354l0.997-2.178V74.77c-10.8,12.609-30.518,22.151-58.741,26.918c1.604,0.67,2.516,2.046,3.148,4.298
			c2.421,8.591,3.676,17.355,5.4,26.099c0.152,0.794,0.152,1.534,0.068,2.236c3.111,8.688,4.714,18.589,4.672,29.257
			c-0.026,7.15-8.827,8.633-12.577,3.406c-6.186-8.638-12.281-19.029-19.865-27.49c-3.902-2.426-7.783-3.607-10.805-1.967
			c-0.797,11.881-0.854,23.582,0.521,35.326c2.142,9.303,4.198,18.589,5.527,27.87c1.682,11.755,7.287,33.144-3.48,42.319
			c-35.391,30.186-40.353-51.479-41.305-66.287c-0.846-13.226-6.035-25.471-12.105-37.214c0.588,10.373,1.577,24.337-5.58,31.488
			c-9.239,9.239-30.282,7.398-36.476-4.619c-12.01-23.288-7.61-53.7-8.3-78.988c-6.384-3.736-9.904-7.981-15.304-12.651v192.547
			l0.886,1.038c4.644,23.51,49.352,41.924,101.487,41.924C207.046,310.278,252.097,291.864,256.742,268.354z M209.139,198.229
			c-10.8,0-10.8-13.5,0-13.5C214.539,184.729,214.539,198.229,209.139,198.229z"/>
	</g>
</g>
</svg>
